{
	"asset":{
		"generator":"Khronos glTF Blender I/O v4.5.47",
		"version":"2.0"
	},
	"scene":0,
	"scenes":[
		{
			"name":"Scene",
			"nodes":[
				0
			]
		}
	],
	"nodes":[
		{
			"mesh":0,
			"name":"faux_tile2",
			"scale":[
				0.05728551745414734,
				0.05728551745414734,
				0.05728551745414734
			]
		}
	],
	"materials":[
		{
			"doubleSided":true,
			"name":"Material_Top",
			"pbrMetallicRoughness":{
				"baseColorFactor":[
					0.800000011920929,
					0.800000011920929,
					0.800000011920929,
					1
				],
				"metallicFactor":0,
				"roughnessFactor":0.5
			}
		},
		{
			"doubleSided":true,
			"name":"Material_Sides",
			"pbrMetallicRoughness":{
				"baseColorFactor":[
					0.800000011920929,
					0.800000011920929,
					0.800000011920929,
					1
				],
				"metallicFactor":0,
				"roughnessFactor":0.5
			}
		}
	],
	"meshes":[
		{
			"name":"faux_tile2",
			"primitives":[
				{
					"attributes":{
						"POSITION":0,
						"NORMAL":1
					},
					"indices":2,
					"material":0
				},
				{
					"attributes":{
						"POSITION":3,
						"NORMAL":4
					},
					"indices":5,
					"material":1
				}
			]
		}
	],
	"accessors":[
		{
			"bufferView":0,
			"componentType":5126,
			"count":383,
			"max":[
				16.326316833496094,
				11.5,
				17.98030662536621
			],
			"min":[
				-16.418437957763672,
				9.933012008666992,
				-18.69334602355957
			],
			"type":"VEC3"
		},
		{
			"bufferView":1,
			"componentType":5126,
			"count":383,
			"type":"VEC3"
		},
		{
			"bufferView":2,
			"componentType":5123,
			"count":675,
			"type":"SCALAR"
		},
		{
			"bufferView":3,
			"componentType":5126,
			"count":24353,
			"max":[
				17.57893943786621,
				11.5,
				18.47682762145996
			],
			"min":[
				-17.67106056213379,
				-2.000000476837158,
				-19.18986701965332
			],
			"type":"VEC3"
		},
		{
			"bufferView":4,
			"componentType":5126,
			"count":24353,
			"type":"VEC3"
		},
		{
			"bufferView":5,
			"componentType":5123,
			"count":30171,
			"type":"SCALAR"
		}
	],
	"bufferViews":[
		{
			"buffer":0,
			"byteLength":4596,
			"byteOffset":0,
			"target":34962
		},
		{
			"buffer":0,
			"byteLength":4596,
			"byteOffset":4596,
			"target":34962
		},
		{
			"buffer":0,
			"byteLength":1350,
			"byteOffset":9192,
			"target":34963
		},
		{
			"buffer":0,
			"byteLength":292236,
			"byteOffset":10544,
			"target":34962
		},
		{
			"buffer":0,
			"byteLength":292236,
			"byteOffset":302780,
			"target":34962
		},
		{
			"buffer":0,
			"byteLength":60342,
			"byteOffset":595016,
			"target":34963
		}
	],
	"buffers":[
		{
			"byteLength":655360,
			"uri":"hex_tile.bin"
		}
	]
}
